<?xml version="1.0" standalone="no"?>
<!DOCTYPE svg PUBLIC "-//W3C//DTD SVG 20010904//EN"
 "http://www.w3.org/TR/2001/REC-SVG-20010904/DTD/svg10.dtd">
<svg version="1.0" xmlns="http://www.w3.org/2000/svg"
 width="500.000000pt" height="500.000000pt" viewBox="0 0 500.000000 500.000000"
 preserveAspectRatio="xMidYMid meet">

<g transform="translate(0.000000,500.000000) scale(0.100000,-0.100000)"
fill="#000000" stroke="none">
<path d="M1863 3811 c-80 -63 -142 -185 -146 -285 -2 -39 1 -51 13 -51 10 0
17 16 22 52 15 102 46 163 119 236 38 37 69 72 69 77 0 20 -29 9 -77 -29z"/>
<path d="M2089 3777 c-75 -32 -120 -68 -164 -131 -63 -91 -78 -177 -50 -273
21 -70 74 -123 161 -157 141 -57 261 -43 359 42 30 26 73 61 97 77 79 55 115
160 87 259 -17 60 -99 136 -184 170 -101 41 -228 46 -306 13z m271 -45 c61
-32 89 -59 111 -107 36 -77 15 -173 -50 -228 -37 -31 -46 -29 -54 11 -7 34
-53 92 -72 92 -28 0 -26 -21 4 -56 75 -85 8 -183 -138 -201 -157 -18 -277 96
-257 245 15 109 96 211 200 252 72 28 193 24 256 -8z"/>
<path d="M2045 3681 c-3 -5 -1 -12 5 -16 12 -7 30 2 30 16 0 12 -27 12 -35 0z"/>
<path d="M2275 3550 c4 -6 11 -8 16 -5 14 9 11 15 -7 15 -8 0 -12 -5 -9 -10z"/>
<path d="M2328 3533 c7 -3 16 -2 19 1 4 3 -2 6 -13 5 -11 0 -14 -3 -6 -6z"/>
<path d="M3495 3611 c-85 -40 -135 -120 -135 -219 0 -109 85 -236 194 -292 64
-32 74 -35 165 -35 79 0 105 4 146 23 59 27 110 73 136 124 23 45 25 127 4
168 -30 58 -77 121 -110 146 -37 28 -124 64 -154 64 -10 0 -38 9 -62 20 -55
25 -132 25 -184 1z m89 -46 c-20 -20 -23 -28 -14 -45 14 -27 41 -25 98 7 47
26 51 26 105 14 216 -48 222 -287 8 -359 -19 -7 -64 -12 -101 -12 -179 0 -290
98 -278 244 8 99 84 175 175 176 l32 0 -25 -25z"/>
<path d="M1140 3199 c-123 -56 -186 -188 -160 -337 21 -120 70 -181 185 -229
87 -37 158 -41 222 -13 60 26 72 37 113 110 61 109 73 142 73 204 0 116 -51
191 -167 247 -70 34 -89 39 -150 39 -50 0 -85 -7 -116 -21z m203 -33 c66 -28
127 -122 127 -195 0 -15 -7 -52 -16 -82 -16 -51 -17 -53 -27 -29 -6 14 -24 47
-40 73 -33 53 -63 75 -79 59 -7 -7 1 -24 26 -54 21 -24 43 -65 52 -95 14 -48
14 -55 -1 -88 -23 -47 -73 -76 -143 -82 -49 -4 -65 -1 -112 24 -46 24 -60 38
-84 87 -26 50 -30 68 -30 139 1 120 44 194 139 238 48 22 142 25 188 5z"/>
<path d="M1270 3085 c0 -8 5 -15 10 -15 6 0 10 7 10 15 0 8 -4 15 -10 15 -5 0
-10 -7 -10 -15z"/>
<path d="M1266 2971 c-4 -7 -5 -15 -2 -18 9 -9 19 4 14 18 -4 11 -6 11 -12 0z"/>
<path d="M1280 2820 c0 -11 5 -20 10 -20 6 0 10 9 10 20 0 11 -4 20 -10 20 -5
0 -10 -9 -10 -20z"/>
<path d="M2260 3148 c-25 -13 -55 -38 -67 -57 -64 -96 -77 -293 -37 -580 8
-57 12 -106 10 -108 -2 -2 -25 6 -52 18 -76 33 -143 49 -211 49 -57 0 -67 3
-115 40 -107 81 -280 126 -348 90 -79 -40 -104 -90 -103 -200 3 -222 144 -529
317 -688 41 -37 47 -49 57 -107 20 -116 66 -194 183 -309 60 -60 122 -111 149
-124 101 -48 254 -35 346 29 l44 31 81 -27 c45 -15 113 -29 151 -32 164 -13
352 79 449 219 l37 55 52 -18 c68 -24 196 -25 263 -2 66 22 158 115 202 205
61 124 72 194 82 493 l9 270 42 165 c33 131 42 184 43 256 1 83 -1 94 -26 132
-38 56 -77 75 -173 81 -194 13 -234 9 -315 -30 -131 -63 -216 -159 -280 -317
l-32 -78 -43 21 c-23 12 -51 24 -62 27 -15 4 -27 25 -42 73 -60 186 -191 366
-301 414 -31 13 -80 21 -155 26 -102 6 -113 5 -155 -17z m213 -57 c57 -39 108
-98 156 -181 32 -54 91 -187 91 -203 0 -2 -28 -3 -62 -3 -49 1 -63 -2 -63 -14
0 -11 23 -18 87 -27 106 -15 184 -52 250 -118 40 -41 49 -58 68 -129 27 -106
48 -153 78 -177 76 -59 141 35 93 135 -21 42 -76 101 -116 123 -16 9 -16 14 4
87 67 244 232 402 432 414 76 4 77 4 115 -31 37 -34 39 -38 42 -110 4 -69 -17
-181 -74 -392 -3 -11 -9 -135 -14 -275 -7 -202 -13 -271 -29 -332 -36 -140
-104 -245 -189 -295 -42 -25 -56 -28 -142 -28 -66 0 -106 5 -132 17 l-36 16
10 44 c14 60 4 182 -21 252 -24 68 -33 81 -55 73 -14 -6 -13 -11 4 -51 48
-113 50 -249 5 -342 -34 -70 -129 -158 -210 -195 -119 -54 -262 -58 -370 -10
-53 24 -81 57 -110 127 -13 33 -31 60 -39 62 -27 6 -19 -41 18 -112 l35 -66
-42 -24 c-89 -52 -221 -60 -303 -18 -54 28 -134 117 -167 186 -15 30 -32 86
-38 123 -12 65 -16 72 -84 144 -155 163 -249 351 -285 568 -26 156 23 242 139
244 63 1 124 -30 205 -105 l67 -60 45 12 c92 26 230 -6 320 -75 29 -22 32 -29
39 -107 4 -46 13 -99 21 -118 31 -74 94 -112 124 -75 10 12 5 27 -29 83 -71
118 -108 266 -132 521 -17 195 0 355 47 427 42 63 166 71 247 15z"/>
<path d="M2450 3050 c0 -13 30 -13 50 0 11 7 7 10 -17 10 -18 0 -33 -4 -33
-10z"/>
<path d="M2290 3040 c0 -5 4 -10 9 -10 6 0 13 5 16 10 3 6 -1 10 -9 10 -9 0
-16 -4 -16 -10z"/>
<path d="M3337 2763 c-4 -3 -7 -13 -7 -22 1 -13 3 -13 11 2 11 19 8 33 -4 20z"/>
<path d="M2295 2740 c-3 -5 -2 -10 4 -10 5 0 13 5 16 10 3 6 2 10 -4 10 -5 0
-13 -4 -16 -10z"/>
<path d="M2629 2451 c-22 -22 -39 -48 -39 -61 0 -19 2 -20 15 -10 26 22 85
110 74 110 -6 0 -29 -17 -50 -39z"/>
<path d="M3268 2293 c7 -3 16 -2 19 1 4 3 -2 6 -13 5 -11 0 -14 -3 -6 -6z"/>
<path d="M3330 2231 c-14 -27 5 -37 36 -21 18 10 21 16 13 27 -16 19 -37 16
-49 -6z"/>
<path d="M2700 2194 c0 -8 5 -12 10 -9 6 3 10 10 10 16 0 5 -4 9 -10 9 -5 0
-10 -7 -10 -16z"/>
<path d="M3495 2159 c-10 -14 -1 -21 19 -13 9 3 13 10 10 15 -7 12 -21 11 -29
-2z"/>
<path d="M2673 2143 c-19 -7 -16 -27 6 -47 17 -15 19 -15 31 0 22 25 -6 60
-37 47z"/>
<path d="M3383 2138 c-7 -8 -8 -19 -3 -28 8 -12 10 -12 15 2 10 26 2 43 -12
26z"/>
<path d="M2481 2116 c-8 -9 -11 -19 -7 -23 9 -9 29 13 24 27 -2 8 -8 7 -17 -4z"/>
<path d="M3300 2120 c0 -5 5 -10 11 -10 5 0 7 5 4 10 -3 6 -8 10 -11 10 -2 0
-4 -4 -4 -10z"/>
<path d="M2090 2100 c0 -5 5 -10 10 -10 6 0 10 5 10 10 0 6 -4 10 -10 10 -5 0
-10 -4 -10 -10z"/>
<path d="M3346 2025 c-7 -19 3 -47 15 -39 5 3 9 14 9 24 0 24 -16 34 -24 15z"/>
<path d="M3475 1990 c-3 -5 -2 -10 4 -10 5 0 13 5 16 10 3 6 2 10 -4 10 -5 0
-13 -4 -16 -10z"/>
<path d="M2172 1931 c-11 -6 -11 -10 0 -19 15 -12 95 1 113 19 11 11 -94 12
-113 0z"/>
<path d="M3385 1930 c-7 -12 2 -30 16 -30 12 0 12 27 0 35 -5 3 -12 1 -16 -5z"/>
<path d="M3240 1888 c0 -9 7 -19 16 -22 25 -10 27 -1 4 19 -17 15 -20 16 -20
3z"/>
<path d="M1906 1875 c-3 -9 0 -15 9 -15 8 0 15 7 15 15 0 8 -4 15 -9 15 -5 0
-11 -7 -15 -15z"/>
<path d="M2931 1874 c0 -11 3 -14 6 -6 3 7 2 16 -1 19 -3 4 -6 -2 -5 -13z"/>
<path d="M3295 1860 c-3 -5 0 -10 9 -10 8 0 23 -3 33 -6 16 -5 16 -4 -1 10
-23 19 -32 20 -41 6z"/>
<path d="M3270 1764 c0 -8 5 -12 10 -9 6 3 10 10 10 16 0 5 -4 9 -10 9 -5 0
-10 -7 -10 -16z"/>
<path d="M2090 1580 c0 -11 4 -20 9 -20 5 0 7 9 4 20 -3 11 -7 20 -9 20 -2 0
-4 -9 -4 -20z"/>
<path d="M1154 2257 c-9 -25 16 -166 45 -247 25 -72 106 -210 123 -210 22 0
17 33 -10 72 -64 93 -98 185 -116 311 -11 76 -29 108 -42 74z"/>
<path d="M1376 1911 c-10 -16 62 -145 113 -201 37 -42 52 -52 61 -44 9 9 0 27
-38 74 -28 34 -63 88 -78 121 -26 55 -45 71 -58 50z"/>
</g>
</svg>
